<?xml version="1.0" encoding="utf-8"?>
<!-- Generator: Adobe Illustrator 16.0.0, SVG Export Plug-In . SVG Version: 6.00 Build 0)  -->
<!DOCTYPE svg PUBLIC "-//W3C//DTD SVG 1.1//EN" "http://www.w3.org/Graphics/SVG/1.1/DTD/svg11.dtd">
<svg version="1.1" id="Layer_1" xmlns="http://www.w3.org/2000/svg" xmlns:xlink="http://www.w3.org/1999/xlink" x="0px" y="0px"
	 width="47.45px" height="62.873px" viewBox="0 0 47.45 62.873" enable-background="new 0 0 47.45 62.873" xml:space="preserve">
<g>
	<path fill="#FFFFFF" d="M33.611,2c3.503,0,6.341,2.84,6.341,6.343v16.795h5.497v35.735H2V25.138h5.499V8.343
		C7.499,4.84,10.339,2,13.842,2H33.611 M12.981,25.138h21.492V13.825c0-3.503-2.84-6.343-6.343-6.343h-8.806
		c-3.503,0-6.343,2.84-6.343,6.343V25.138 M23.725,55.498c2.018,0,3.655-1.637,3.655-3.652v-13.81c0-2.018-1.637-3.655-3.655-3.655
		c-2.018,0-3.654,1.637-3.654,3.655v13.81C20.07,53.861,21.707,55.498,23.725,55.498 M33.611,0h-19.77
		c-4.6,0-8.343,3.743-8.343,8.343v14.795H2H0v2v35.735v2h2h43.45h2v-2V25.138v-2h-2h-3.497V8.343C41.953,3.743,38.21,0,33.611,0
		L33.611,0z M14.981,23.138v-9.313c0-2.395,1.948-4.343,4.343-4.343h8.806c2.395,0,4.343,1.948,4.343,4.343v9.313H14.981
		L14.981,23.138z M23.725,53.498c-0.912,0-1.654-0.741-1.654-1.652v-13.81c0-0.913,0.742-1.655,1.654-1.655
		c0.913,0,1.655,0.742,1.655,1.655v13.81C25.379,52.757,24.637,53.498,23.725,53.498L23.725,53.498z"/>
</g>
</svg>
